HIERARCHY
ROOT Hips
{
	OFFSET 0.000000 0.000000 0.000000
	CHANNELS 6 Xposition Yposition Zposition Zrotation Yrotation Xrotation 
	JOINT LHipJoint
	{
		OFFSET 0.000000 0.000000 0.000000
		CHANNELS 3 Zrotation Yrotation Xrotation
		JOINT LeftUpLeg
		{
			OFFSET 1.363060 -1.794630 0.839290
			CHANNELS 3 Zrotation Yrotation Xrotation
			JOINT LeftLeg
			{
				OFFSET 2.448110 -6.726130 0.000000
				CHANNELS 3 Zrotation Yrotation Xrotation
				JOINT LeftFoot
				{
					OFFSET 2.562200 -7.039590 0.000000
					CHANNELS 3 Zrotation Yrotation Xrotation
					JOINT LeftToeBase
					{
						OFFSET 0.157640 -0.433110 2.322550
						CHANNELS 3 Zrotation Yrotation Xrotation
						End Site
						{
							OFFSET 0.000000 0.000000 0.000000
						}
					}
				}
			}
		}
	}
	JOINT RHipJoint
	{
		OFFSET 0.000000 0.000000 0.000000
		CHANNELS 3 Zrotation Yrotation Xrotation
		JOINT RightUpLeg
		{
			OFFSET -1.305520 -1.794630 0.839290
			CHANNELS 3 Zrotation Yrotation Xrotation
			JOINT RightLeg
			{
				OFFSET -2.542530 -6.985550 0.000000
				CHANNELS 3 Zrotation Yrotation Xrotation
				JOINT RightFoot
				{
					OFFSET -2.568260 -7.056230 0.000000
					CHANNELS 3 Zrotation Yrotation Xrotation
					JOINT RightToeBase
					{
						OFFSET -0.164730 -0.452590 2.363150
						CHANNELS 3 Zrotation Yrotation Xrotation
						End Site
						{
							OFFSET 0.000000 0.000000 0.000000
						}
					}
				}
			}
		}
	}
	JOINT LowerBack
	{
		OFFSET 0.000000 0.000000 0.000000
		CHANNELS 3 Zrotation Yrotation Xrotation
		JOINT Spine
		{
			OFFSET 0.028270 2.035590 -0.193380
			CHANNELS 3 Zrotation Yrotation Xrotation
			JOINT Spine1
			{
				OFFSET 0.056720 2.048850 -0.042750
				CHANNELS 3 Zrotation Yrotation Xrotation
				JOINT Neck
				{
					OFFSET 0.000000 0.000000 0.000000
					CHANNELS 3 Zrotation Yrotation Xrotation
					JOINT Neck1
					{
						OFFSET -0.054170 1.746240 0.172020
						CHANNELS 3 Zrotation Yrotation Xrotation
						JOINT Head
						{
							OFFSET 0.104070 1.761360 -0.123970
							CHANNELS 3 Zrotation Yrotation Xrotation
							End Site
							{
								OFFSET 0.000000 0.000000 0.000000
							}
						}
					}
				}
				JOINT LeftShoulder
				{
					OFFSET 0.000000 0.000000 0.000000
					CHANNELS 3 Zrotation Yrotation Xrotation
					JOINT LeftArm
					{
						OFFSET 3.362410 1.200890 -0.311210
						CHANNELS 3 Zrotation Yrotation Xrotation
						JOINT LeftForeArm
						{
							OFFSET 4.983000 -0.000000 -0.000000
							CHANNELS 3 Zrotation Yrotation Xrotation
							JOINT LeftHand
							{
								OFFSET 3.483560 -0.000000 -0.000000
								CHANNELS 3 Zrotation Yrotation Xrotation
								JOINT LeftFingerBase
								{
									OFFSET 0.000000 0.000000 0.000000
									CHANNELS 3 Zrotation Yrotation Xrotation
									JOINT LeftHandIndex1
									{
										OFFSET 0.715260 -0.000000 -0.000000
										CHANNELS 3 Zrotation Yrotation Xrotation
										End Site
										{
											OFFSET 0.000000 0.000000 0.000000
										}
									}
								}
								JOINT LThumb
								{
									OFFSET 0.000000 0.000000 0.000000
									CHANNELS 3 Zrotation Yrotation Xrotation
									End Site
									{
										OFFSET 0.000000 0.000000 0.000000
									}
								}
							}
						}
					}
				}
				JOINT RightShoulder
				{
					OFFSET 0.000000 0.000000 0.000000
					CHANNELS 3 Zrotation Yrotation Xrotation
					JOINT RightArm
					{
						OFFSET -3.136600 1.374050 -0.404650
						CHANNELS 3 Zrotation Yrotation Xrotation
						JOINT RightForeArm
						{
							OFFSET -5.241900 -0.000000 -0.000000
							CHANNELS 3 Zrotation Yrotation Xrotation
							JOINT RightHand
							{
								OFFSET -3.444170 -0.000000 -0.000000
								CHANNELS 3 Zrotation Yrotation Xrotation
								JOINT RightFingerBase
								{
									OFFSET 0.000000 0.000000 0.000000
									CHANNELS 3 Zrotation Yrotation Xrotation
									JOINT RightHandIndex1
									{
										OFFSET -0.622530 -0.000000 -0.000000
										CHANNELS 3 Zrotation Yrotation Xrotation
										End Site
										{
											OFFSET 0.000000 0.000000 0.000000
										}
									}
								}
								JOINT RThumb
								{
									OFFSET 0.000000 0.000000 0.000000
									CHANNELS 3 Zrotation Yrotation Xrotation
									End Site
									{
										OFFSET 0.000000 0.000000 0.000000
									}
								}
							}
						}
					}
				}
			}
		}
	}
}
MOTION
Frames: 4
Frame Time: 0.008333
18.210413 18.978571 12.429017 4.199133 8.274262 11.534730 -16.487606 0.185243 0.736983 -3.362868 -4.679617 -38.673052 -19.305700 -14.112136 47.856683 -5.274694 44.488946 -11.041253 -0.159644 2.205562 -2.523896 16.221401 -4.702854 4.608442 -0.946986 2.851688 -18.229323 -8.691858 -33.738991 9.195128 5.638516 4.915761 5.076146 -0.173728 -0.584784 -0.193268 2.960417 1.076419 8.170599 0.617750 1.094119 -3.836597 -4.841405 1.150113 -1.000461 -6.221531 -3.400961 -4.751720 -2.030295 -4.551654 36.186239 -14.423516 -0.226561 16.314603 -7.352123 -11.230376 1.065030 -79.366384 -20.578147 51.644359 12.779146 -11.298221 -9.526084 1.335067 -3.308870 -6.358178 0.166839 0.320246 -0.000000 0.000000 0.000000 0.000000 0.000000 0.000000 0.000000 8.800526 15.661112 4.212399 50.899171 26.758332 25.906698 -1.989832 8.540743 3.630272 -4.255281 0.612973 3.715509 1.457397 0.335563 -0.000000 0.000000 0.000000 0.000000 0.000000 0.000000 0.000000
18.210405 18.964415 12.535534 4.097634 7.999772 11.579390 -16.505266 0.081294 0.779877 -3.181725 -4.873981 -38.566093 -18.044289 -14.744394 45.347683 -6.448017 44.088169 -11.740875 -0.508805 0.264127 -3.520837 16.270433 -4.759711 4.652510 -1.005278 3.216637 -17.898241 -8.361642 -32.308130 9.783228 6.464333 3.477701 3.750564 -0.190252 -0.640951 -0.231918 2.846464 1.171365 8.153120 0.606989 1.194751 -3.843817 -4.902949 1.255175 -1.075204 -6.133494 -3.415262 -4.750914 -2.009292 -4.524356 36.126218 -14.319604 -0.204384 16.412787 -7.297265 -11.212128 1.137815 -78.875661 -20.311590 51.285280 12.536294 -11.055576 -9.404505 1.448261 -3.151243 -6.369263 0.114168 0.279778 -0.000000 0.000000 0.000000 0.000000 0.000000 0.000000 0.000000 8.605259 15.788507 4.075510 50.646146 27.111343 25.357459 -2.032058 8.795039 3.555219 -4.570568 0.648770 3.634957 1.575406 0.329820 0.000000 0.000000 0.000000 0.000000 0.000000 0.000000 0.000000
18.219065 18.949201 12.639504 3.950782 7.824351 11.803747 -16.489506 -0.132116 0.899824 -2.857671 -5.419056 -38.577758 -17.542412 -16.131266 43.317418 -6.346090 44.912884 -12.113833 -0.452495 0.312259 -3.183567 16.304142 -4.740274 4.661228 -0.748609 2.799423 -18.055434 -8.768542 -33.153774 9.779661 5.481647 5.133616 3.987957 -0.150829 -0.509481 -0.684856 2.864539 1.234880 7.960005 0.603678 1.253469 -3.853842 -4.972078 1.321732 -1.080050 -6.041506 -3.420145 -4.809380 -1.973892 -4.485619 36.108528 -14.360840 -0.157211 16.336479 -7.296316 -11.206121 1.238916 -78.317352 -20.195857 50.645181 12.021076 -10.867875 -9.139604 1.586650 -2.985360 -6.285198 0.035395 0.237386 -0.000000 0.000000 0.000000 0.000000 0.000000 0.000000 0.000000 8.452161 15.879869 4.014580 50.301369 27.582791 24.901325 -2.133008 9.021362 3.381424 -4.728193 0.616342 3.480727 1.630241 0.347475 0.000000 0.000000 0.000000 0.000000 0.000000 0.000000 0.000000
18.224392 18.933215 12.755115 3.880984 7.269538 11.753718 -16.620657 -0.194405 0.871832 -3.062038 -5.063241 -38.304055 -15.946784 -17.231557 40.877551 -6.599590 44.399885 -12.050177 -0.489511 0.061538 -3.269523 16.324537 -4.797547 4.718887 -0.786691 2.996400 -17.674975 -9.010364 -33.958419 9.675504 5.164458 6.456343 4.107897 -0.133708 -0.450688 -0.682243 2.686629 1.368172 7.992190 0.587378 1.404065 -3.853649 -5.018312 1.473500 -1.122892 -5.933589 -3.470390 -4.835000 -2.043960 -4.412611 36.047532 -14.373176 -0.087444 16.424659 -7.320784 -11.088404 1.293775 -77.769470 -19.894046 50.192735 11.603573 -10.581682 -8.895902 1.745969 -2.902366 -6.227091 -0.044065 0.231778 -0.000000 0.000000 0.000000 0.000000 0.000000 0.000000 0.000000 8.332090 15.990017 3.940689 50.150670 27.997523 24.588561 -2.417378 9.266369 3.169531 -5.255606 0.775405 3.292868 1.816889 0.291809 0.000000 0.000000 0.000000 0.000000 0.000000 0.000000 0.000000
